<svg width="16" height="18" viewBox="0 0 16 18" fill="none" xmlns="http://www.w3.org/2000/svg">
<g clip-path="url(#clip0_1_4902)">
<path d="M11.9598 12.9599C10.8202 13.8285 9.43258 14.3098 7.99984 14.3332C3.33317 14.3332 0.666504 8.99985 0.666504 8.99985C1.49576 7.45445 2.64593 6.10426 4.03984 5.03985M6.59984 3.82652C7.05873 3.71911 7.52855 3.66541 7.99984 3.66652C12.6665 3.66652 15.3332 8.99985 15.3332 8.99985C14.9285 9.75693 14.4459 10.4697 13.8932 11.1265M9.41317 10.4132C9.23007 10.6097 9.00927 10.7673 8.76394 10.8766C8.51861 10.9859 8.25377 11.0447 7.98523 11.0494C7.71669 11.0542 7.44995 11.0048 7.20091 10.9042C6.95188 10.8036 6.72565 10.6539 6.53573 10.464C6.34582 10.274 6.1961 10.0478 6.09551 9.79878C5.99492 9.54975 5.94552 9.283 5.95026 9.01446C5.955 8.74592 6.01378 8.48108 6.12309 8.23575C6.2324 7.99042 6.39001 7.76962 6.5865 7.58652" stroke="#6B7280" stroke-width="1.33333" stroke-linecap="round" stroke-linejoin="round"/>
<path d="M0.666504 1.6665L15.3332 16.3332" stroke="#6B7280" stroke-width="1.33333" stroke-linecap="round" stroke-linejoin="round"/>
</g>
<defs>
<clipPath id="clip0_1_4902">
<rect width="16" height="18" fill="white"/>
</clipPath>
</defs>
</svg>
